<?xml version="1.0" standalone="no"?>
<!DOCTYPE svg PUBLIC "-//W3C//DTD SVG 20010904//EN"
 "http://www.w3.org/TR/2001/REC-SVG-20010904/DTD/svg10.dtd">
<svg version="1.0" xmlns="http://www.w3.org/2000/svg"
 width="340.000000pt" height="431.000000pt" viewBox="0 0 340.000000 431.000000"
 preserveAspectRatio="xMidYMid meet">

<g transform="translate(0.000000,431.000000) scale(0.100000,-0.100000)"
fill="#000000" stroke="none">
<path d="M652 3997 l-52 -53 0 -296 0 -297 53 -15 c28 -8 73 -20 100 -27 l47
-11 0 -1038 0 -1038 -47 14 -47 14 -53 -52 -53 -52 0 -198 c0 -109 1 -198 3
-198 1 0 225 -61 497 -134 l495 -134 52 51 53 51 0 201 0 200 -100 25 -100 24
0 337 0 337 33 -8 c17 -5 127 -34 242 -65 116 -31 258 -69 317 -85 l106 -28
51 52 c40 41 51 59 51 84 0 35 9 38 59 21 32 -11 35 -10 87 42 44 43 54 60 54
86 0 31 2 33 28 27 15 -4 36 -10 48 -15 17 -6 31 2 73 45 l51 52 0 600 0 599
-97 26 -98 25 -3 101 -3 101 -57 15 c-31 9 -76 21 -99 27 l-42 11 -3 101 -3
101 -220 59 c-121 32 -260 69 -310 83 -83 23 -302 82 -825 221 -113 30 -212
57 -220 59 -10 3 -36 -16 -68 -48z m1088 -953 c118 -31 225 -60 238 -65 l22
-9 0 -334 0 -334 -127 34 c-71 19 -183 49 -250 67 l-123 32 0 337 c0 266 3
336 13 333 6 -2 109 -30 227 -61z"/>
</g>
</svg>
